<?xml version="1.0" standalone="no"?>
<!DOCTYPE svg PUBLIC "-//W3C//DTD SVG 20010904//EN"
 "http://www.w3.org/TR/2001/REC-SVG-20010904/DTD/svg10.dtd">
<svg version="1.0" xmlns="http://www.w3.org/2000/svg"
 width="722.000000pt" height="664.000000pt" viewBox="0 0 722.000000 664.000000"
 preserveAspectRatio="xMidYMid meet">

<g transform="translate(0.000000,664.000000) scale(0.100000,-0.100000)"
fill="#000000" stroke="none">
<path d="M2590 6586 l0 -54 64 -16 c179 -45 266 -119 319 -276 l22 -65 3
-1303 3 -1302 282 2 282 3 3 1533 2 1532 -490 0 -490 0 0 -54z"/>
<path d="M1635 4365 c-352 -437 -643 -795 -647 -795 -5 0 -9 354 -10 788 l-3
787 -487 3 -488 2 0 -54 0 -54 70 -16 c138 -31 232 -98 285 -203 56 -113 55
-70 55 -1575 l0 -1388 285 0 285 0 0 801 c0 486 4 799 9 797 5 -1 278 -362
606 -800 l597 -798 329 0 329 0 -148 198 c-82 108 -388 518 -681 911 -504 675
-533 716 -520 736 8 12 266 340 574 729 308 389 562 711 563 716 2 6 -68 10
-180 10 l-183 0 -640 -795z"/>
<path d="M4590 4800 l0 -360 65 0 c59 0 65 2 69 23 38 216 68 291 142 356 46
41 120 74 204 92 53 12 567 24 604 15 l26 -6 0 -1530 0 -1530 280 0 280 0 0
1535 0 1535 480 0 480 0 0 115 0 115 -1315 0 -1315 0 0 -360z"/>
<path d="M4365 3504 c-147 -20 -192 -28 -272 -50 -373 -99 -613 -329 -679
-650 -23 -112 -15 -332 16 -429 66 -210 206 -378 450 -540 90 -60 156 -96 568
-314 215 -113 326 -186 419 -274 139 -132 196 -253 196 -417 0 -119 -15 -195
-59 -288 -173 -363 -776 -395 -1443 -76 -74 35 -135 64 -137 64 -2 0 -4 -87
-4 -194 l0 -193 98 -26 c145 -39 330 -74 482 -91 177 -21 502 -21 657 -1 502
66 821 292 927 657 91 315 39 621 -143 850 -138 175 -291 279 -777 530 -155
80 -324 174 -375 209 -222 148 -329 314 -329 509 0 228 124 386 353 451 72 21
104 23 257 23 143 0 193 -4 274 -22 124 -27 315 -91 395 -131 l61 -31 0 173 0
173 -142 27 c-249 47 -348 58 -558 62 -113 2 -218 1 -235 -1z"/>
</g>
</svg>
