<svg version="1.1" id="Layer_1" xmlns="http://www.w3.org/2000/svg" xmlns:xlink="http://www.w3.org/1999/xlink" x="0px" y="0px"
	 width="100%" viewBox="0 0 722 664" enable-background="new 0 0 722 664" xml:space="preserve">
<path fill="#000000" opacity="1.000000" stroke="none" 
	d="
M376.000000,665.000000 
	C251.062286,665.000000 126.124557,665.000000 1.000000,665.000000 
	C1.000000,498.645294 1.000000,332.290497 1.414406,165.468689 
	C4.077453,165.412048 6.396155,165.597809 8.562040,166.273438 
	C16.064384,168.613770 23.105902,171.124542 28.007603,178.391754 
	C35.225002,189.092163 37.876476,200.864563 37.901459,213.220795 
	C38.079021,301.041412 37.996147,388.862549 37.996216,476.683533 
	C37.996216,478.735291 37.996216,480.787048 37.996216,482.838806 
	C38.344746,482.835052 38.693272,482.831299 39.041801,482.827545 
	C39.041801,390.276245 39.041801,297.724915 39.041801,205.173599 
	C39.359665,205.172272 39.677528,205.170959 39.995392,205.169647 
	C39.995392,206.959641 39.995392,208.749649 39.995392,210.539658 
	C39.995373,266.365143 39.995331,322.190613 39.995354,378.016083 
	C39.995369,410.678162 39.964306,443.340363 40.081680,476.002014 
	C40.087986,477.754974 41.342625,479.503479 42.013763,481.375977 
	C42.011383,481.497894 41.996613,481.741302 41.593430,481.831421 
	C38.954929,484.770935 41.729527,483.976318 42.811279,483.975861 
	C61.209686,483.967896 79.608063,483.895660 98.366615,483.890961 
	C99.151657,481.263367 99.942909,478.582916 99.947037,475.901306 
	C100.021683,427.426697 100.001427,378.951904 100.001427,330.477173 
	C100.001427,328.719269 100.001427,326.961334 100.001427,325.203430 
	C100.339233,325.205017 100.677032,325.206604 101.014839,325.208160 
	C101.014839,376.759766 101.014839,428.311371 101.014839,479.862976 
	C101.416245,479.863556 101.817650,479.864136 102.219055,479.864716 
	C102.219055,430.474304 102.219055,381.083923 102.219055,330.720825 
	C117.107643,350.444122 131.341110,369.137695 145.400604,387.961182 
	C168.534149,418.933441 191.536606,450.003540 214.697708,480.955017 
	C215.535263,482.074249 217.466858,482.374786 219.147888,483.408569 
	C241.386765,483.840790 263.366455,483.957275 285.345459,483.877289 
	C286.275970,483.873932 287.199890,482.046448 288.419373,481.183319 
	C288.915863,481.878632 289.119812,482.459412 289.323761,483.040161 
	C289.778290,482.936707 290.232849,482.833252 290.687378,482.729797 
	C289.793823,479.658203 289.663483,476.028503 287.888672,473.601227 
	C270.025696,449.171112 251.932861,424.908478 233.825943,400.657532 
	C212.655670,372.303802 191.400681,344.013336 170.196960,315.684570 
	C165.301758,309.144409 160.465607,302.559998 155.624634,296.026184 
	C157.124603,294.433044 158.239899,293.416992 159.159271,292.246979 
	C176.067413,270.730103 192.879196,249.137115 209.860962,227.678619 
	C229.397934,202.991364 249.137009,178.463684 268.578796,153.702209 
	C269.929169,151.982361 269.992889,148.838806 269.687500,146.482727 
	C269.595123,145.770187 266.244690,145.082626 264.379150,145.062012 
	C252.714844,144.933182 241.047531,144.919281 229.383362,145.053024 
	C226.621536,145.084686 223.721802,145.124466 222.025925,148.341248 
	C220.895203,150.486008 218.952393,152.200089 217.388229,154.119263 
	C205.403824,168.823700 193.381119,183.497177 181.453934,198.247849 
	C170.878510,211.326797 160.411774,224.493622 149.894699,237.619766 
	C139.582901,250.489777 129.285706,263.371552 118.947426,276.220245 
	C113.557053,282.919586 108.091988,289.558807 101.759628,297.331055 
	C101.759628,246.320038 101.759628,196.843124 101.759628,147.366211 
	C101.456123,147.366516 101.152611,147.366806 100.849106,147.367096 
	C100.849106,198.780991 100.849106,250.194885 100.849106,301.608795 
	C100.519417,301.607971 100.189735,301.607147 99.860046,301.606354 
	C99.860046,249.867508 99.860046,198.128662 99.860046,146.000000 
	C66.593605,146.000000 33.796803,146.000000 1.000000,146.000000 
	C1.000000,97.719391 1.000000,49.438778 1.000000,1.000000 
	C85.688034,1.000000 170.376175,1.000000 255.534027,1.463573 
	C256.004059,3.426687 256.004242,4.926228 256.004669,6.425768 
	C256.006958,14.442860 256.030121,14.359027 264.026825,16.565250 
	C274.146851,19.357283 283.435699,23.572607 289.346405,32.883633 
	C294.918182,41.660744 296.903900,51.567024 296.921875,61.687820 
	C297.065796,142.826447 297.003601,223.965439 297.004425,305.104309 
	C297.004456,306.947174 297.004425,308.790070 297.004425,310.632935 
	C297.378693,310.623413 297.752960,310.613892 298.127228,310.604370 
	C298.127228,225.850708 298.127228,141.097046 298.127228,56.343391 
	C298.450348,56.343803 298.773499,56.344215 299.096619,56.344631 
	C299.096619,141.399719 299.096619,226.454803 299.096619,311.662567 
	C319.263550,311.662567 338.969788,311.662567 359.000000,311.662567 
	C359.000000,207.880005 359.000000,104.440002 359.000000,1.000000 
	C359.000000,1.000000 359.500000,1.000000 359.750000,1.468657 
	C360.000000,104.845345 360.000000,207.753372 360.000000,310.661407 
	C360.333344,310.661133 360.666656,310.660858 361.000000,310.660583 
	C361.000000,207.440384 361.000000,104.220192 361.000000,1.000000 
	C481.562653,1.000000 602.125305,1.000000 723.000000,1.000000 
	C723.000000,48.687645 723.000000,96.375977 722.531372,144.530289 
	C633.483521,144.996277 544.904297,144.996277 456.372803,144.996277 
	C456.372803,172.024628 456.372803,198.406815 456.372803,225.328201 
	C463.586304,224.945068 470.399384,224.583206 477.314636,224.215927 
	C478.219574,218.604034 478.705475,212.888214 480.118347,207.411545 
	C482.765594,197.150360 487.289215,187.954727 496.898224,182.192566 
	C504.035736,177.912460 512.068237,176.768890 520.014954,176.446671 
	C534.794189,175.847382 549.608276,176.104416 564.407959,176.031570 
	C565.181946,176.027756 565.957092,176.271439 567.118835,176.464096 
	C567.118835,278.046234 567.118835,379.402588 567.118835,480.758942 
	C567.429260,480.758911 567.739746,480.758881 568.050171,480.758820 
	C568.050171,379.579041 568.050171,278.399231 568.050171,177.219421 
	C568.367126,177.213715 568.684082,177.208023 569.001038,177.202316 
	C569.001038,179.166641 569.000977,181.130966 569.000977,183.095291 
	C569.000977,280.243561 569.000061,377.391815 569.007385,474.540070 
	C569.007568,476.703583 569.101562,478.867126 569.089233,481.264374 
	C569.026733,481.498108 569.154480,481.964813 569.128418,482.396942 
	C569.550537,483.204285 569.997620,483.906036 570.447144,483.907684 
	C589.255188,483.976166 608.063477,484.001984 626.871216,483.912506 
	C627.526245,483.909363 628.175354,482.679169 628.893311,481.554993 
	C628.959351,379.867401 628.959351,278.645691 628.959351,177.423996 
	C629.374268,177.424240 629.789185,177.424469 630.204102,177.424713 
	C630.204102,279.127991 630.204102,380.831268 630.204102,482.534515 
	C630.522522,482.534058 630.840942,482.533600 631.159363,482.533142 
	C631.159363,380.479431 631.159363,278.425720 631.159363,176.000000 
	C662.077209,176.000000 692.538574,176.000000 723.000000,176.000000 
	C723.000000,338.901825 723.000000,501.803619 723.000000,665.000000 
	C644.978821,665.000000 566.957275,665.000000 488.144989,664.845215 
	C487.804657,664.278076 488.194855,663.613892 488.714111,663.489868 
	C502.954163,660.088074 516.611938,654.918701 528.941223,647.176086 
	C544.266479,637.552063 555.491760,623.938904 561.762024,606.833923 
	C568.456482,588.572144 569.187744,569.656616 567.122437,550.407776 
	C565.130188,531.839783 556.754822,516.671753 544.585205,502.995483 
	C531.672607,488.484131 514.950989,479.335876 498.718292,469.488586 
	C492.891266,465.953705 486.632965,463.125671 480.548279,460.020538 
	C466.521332,452.862305 451.924561,446.619202 438.630890,438.293243 
	C429.009277,432.267181 420.100708,424.364166 412.658783,415.755432 
	C398.717865,399.628784 396.165344,381.579681 409.093872,363.130402 
	C419.397034,348.427521 435.297729,343.923950 452.348450,343.046417 
	C466.654724,342.310089 480.483551,344.927307 494.306641,348.756165 
	C505.266510,351.791931 515.672363,355.897552 525.962585,360.520142 
	C528.025208,361.446686 530.079041,362.392700 533.077942,363.758240 
	C533.077942,350.492157 533.077942,338.430420 533.077942,326.368713 
	C533.442444,326.372498 533.806885,326.376282 534.171387,326.380035 
	C534.171387,338.140045 534.171387,349.900024 534.171387,361.660034 
	C535.001038,348.510101 535.057556,335.375702 534.879700,322.244446 
	C534.867310,321.323944 533.256165,319.885834 532.157837,319.611450 
	C527.044556,318.334106 521.891296,317.078552 516.677002,316.369110 
	C500.110168,314.115051 483.556488,311.497284 466.905640,310.223450 
	C456.090363,309.396057 445.086517,310.283722 434.216583,311.078796 
	C412.644348,312.656677 392.180939,318.354736 373.787903,329.996155 
	C368.768677,333.172943 365.025635,338.297394 360.240509,341.926117 
	C348.244110,351.023315 342.163300,363.972229 339.386993,377.781860 
	C335.226135,398.478424 334.788696,419.271545 343.407562,439.645660 
	C348.031769,450.576752 354.703278,459.700653 362.716888,467.851257 
	C374.811584,480.152710 389.990021,488.381439 404.647430,497.188873 
	C409.342438,500.010040 414.229889,502.531799 419.135254,504.978027 
	C430.907867,510.848846 443.130249,515.936035 454.436127,522.588562 
	C464.244568,528.359985 473.409729,535.403870 482.205902,542.675659 
	C496.680115,554.641479 505.436829,569.486511 503.048523,589.255981 
	C500.505920,610.302490 489.672943,624.882385 469.755737,632.330017 
	C450.092224,639.682800 430.153931,637.482239 410.370605,632.988159 
	C401.555847,630.985657 392.893402,628.131165 384.367859,625.086426 
	C375.130005,621.787354 366.109436,617.871216 357.038605,614.116638 
	C351.866943,611.976074 347.464630,607.736450 341.172974,608.101318 
	C341.172974,624.075073 341.172974,639.703003 341.172974,655.748108 
	C352.853394,658.323425 364.458740,660.878540 376.048523,663.502686 
	C376.140656,663.523499 376.020874,664.480225 376.000000,665.000000 
M339.000519,627.500854 
	C339.000519,636.284424 339.000519,645.067993 339.000519,653.851624 
	C339.249664,653.848633 339.498840,653.845642 339.747986,653.842651 
	C339.747986,638.951904 339.747986,624.061157 339.747986,609.170410 
	C339.498840,609.167725 339.249664,609.165039 339.000519,609.162354 
	C339.000519,614.942017 339.000519,620.721741 339.000519,627.500854 
z"/>
<path fill="#E54125" opacity="1.000000" stroke="none" 
	d="
M42.016144,481.254059 
	C41.342625,479.503479 40.087986,477.754974 40.081680,476.002014 
	C39.964306,443.340363 39.995369,410.678162 39.995354,378.016083 
	C39.995331,322.190613 39.995373,266.365143 39.995392,210.539658 
	C39.995392,208.749649 39.995392,206.959641 39.995392,205.169647 
	C39.677528,205.170959 39.359665,205.172272 39.041801,205.173599 
	C39.041801,297.724915 39.041801,390.276245 39.041801,482.827545 
	C38.693272,482.831299 38.344746,482.835052 37.996216,482.838806 
	C37.996216,480.787048 37.996216,478.735291 37.996216,476.683533 
	C37.996147,388.862549 38.079021,301.041412 37.901459,213.220795 
	C37.876476,200.864563 35.225002,189.092163 28.007603,178.391754 
	C23.105902,171.124542 16.064384,168.613770 8.562040,166.273438 
	C6.396155,165.597809 4.077453,165.412048 1.414406,165.000854 
	C1.000000,158.978851 1.000000,152.957703 1.000000,146.468277 
	C33.796803,146.000000 66.593605,146.000000 99.860046,146.000000 
	C99.860046,198.128662 99.860046,249.867508 99.860046,301.606354 
	C100.189735,301.607147 100.519417,301.607971 100.849106,301.608795 
	C100.849106,250.194885 100.849106,198.780991 100.849106,147.367096 
	C101.152611,147.366806 101.456123,147.366516 101.759628,147.366211 
	C101.759628,196.843124 101.759628,246.320038 101.759628,297.331055 
	C108.091988,289.558807 113.557053,282.919586 118.947426,276.220245 
	C129.285706,263.371552 139.582901,250.489777 149.894699,237.619766 
	C160.411774,224.493622 170.878510,211.326797 181.453934,198.247849 
	C193.381119,183.497177 205.403824,168.823700 217.388229,154.119263 
	C218.952393,152.200089 220.895203,150.486008 222.025925,148.341248 
	C223.721802,145.124466 226.621536,145.084686 229.383362,145.053024 
	C241.047531,144.919281 252.714844,144.933182 264.379150,145.062012 
	C266.244690,145.082626 269.595123,145.770187 269.687500,146.482727 
	C269.992889,148.838806 269.929169,151.982361 268.578796,153.702209 
	C249.137009,178.463684 229.397934,202.991364 209.860962,227.678619 
	C192.879196,249.137115 176.067413,270.730103 159.159271,292.246979 
	C158.239899,293.416992 157.124603,294.433044 155.624634,296.026184 
	C160.465607,302.559998 165.301758,309.144409 170.196960,315.684570 
	C191.400681,344.013336 212.655670,372.303802 233.825943,400.657532 
	C251.932861,424.908478 270.025696,449.171112 287.888672,473.601227 
	C289.663483,476.028503 289.793823,479.658203 290.687378,482.729797 
	C290.232849,482.833252 289.778290,482.936707 289.323761,483.040161 
	C289.119812,482.459412 288.915863,481.878632 288.015015,481.169189 
	C286.508270,481.044006 285.698456,481.047546 284.426941,481.031616 
	C264.859192,481.008575 245.753021,480.983307 226.647125,481.043152 
	C225.133255,481.047882 223.621231,481.642883 221.778412,482.048096 
	C220.595169,482.440704 219.741882,482.748810 218.888580,483.056885 
	C217.466858,482.374786 215.535263,482.074249 214.697708,480.955017 
	C191.536606,450.003540 168.534149,418.933441 145.400604,387.961182 
	C131.341110,369.137695 117.107643,350.444122 102.219055,330.720825 
	C102.219055,381.083923 102.219055,430.474304 102.219055,479.864716 
	C101.817650,479.864136 101.416245,479.863556 101.014839,479.862976 
	C101.014839,428.311371 101.014839,376.759766 101.014839,325.208160 
	C100.677032,325.206604 100.339233,325.205017 100.001427,325.203430 
	C100.001427,326.961334 100.001427,328.719269 100.001427,330.477173 
	C100.001427,378.951904 100.021683,427.426697 99.947037,475.901306 
	C99.942909,478.582916 99.151657,481.263367 98.361557,483.582611 
	C97.987999,482.809784 97.979660,482.398651 97.753647,481.615295 
	C79.029366,481.246735 60.522755,481.250397 42.016144,481.254059 
z"/>
<path fill="#E54125" opacity="1.000000" stroke="none" 
	d="
M376.468689,665.000000 
	C376.020874,664.480225 376.140656,663.523499 376.048523,663.502686 
	C364.458740,660.878540 352.853394,658.323425 341.172974,655.748108 
	C341.172974,639.703003 341.172974,624.075073 341.172974,608.101318 
	C347.464630,607.736450 351.866943,611.976074 357.038605,614.116638 
	C366.109436,617.871216 375.130005,621.787354 384.367859,625.086426 
	C392.893402,628.131165 401.555847,630.985657 410.370605,632.988159 
	C430.153931,637.482239 450.092224,639.682800 469.755737,632.330017 
	C489.672943,624.882385 500.505920,610.302490 503.048523,589.255981 
	C505.436829,569.486511 496.680115,554.641479 482.205902,542.675659 
	C473.409729,535.403870 464.244568,528.359985 454.436127,522.588562 
	C443.130249,515.936035 430.907867,510.848846 419.135254,504.978027 
	C414.229889,502.531799 409.342438,500.010040 404.647430,497.188873 
	C389.990021,488.381439 374.811584,480.152710 362.716888,467.851257 
	C354.703278,459.700653 348.031769,450.576752 343.407562,439.645660 
	C334.788696,419.271545 335.226135,398.478424 339.386993,377.781860 
	C342.163300,363.972229 348.244110,351.023315 360.240509,341.926117 
	C365.025635,338.297394 368.768677,333.172943 373.787903,329.996155 
	C392.180939,318.354736 412.644348,312.656677 434.216583,311.078796 
	C445.086517,310.283722 456.090363,309.396057 466.905640,310.223450 
	C483.556488,311.497284 500.110168,314.115051 516.677002,316.369110 
	C521.891296,317.078552 527.044556,318.334106 532.157837,319.611450 
	C533.256165,319.885834 534.867310,321.323944 534.879700,322.244446 
	C535.057556,335.375702 535.001038,348.510101 534.171387,361.660034 
	C534.171387,349.900024 534.171387,338.140045 534.171387,326.380035 
	C533.806885,326.376282 533.442444,326.372498 533.077942,326.368713 
	C533.077942,338.430420 533.077942,350.492157 533.077942,363.758240 
	C530.079041,362.392700 528.025208,361.446686 525.962585,360.520142 
	C515.672363,355.897552 505.266510,351.791931 494.306641,348.756165 
	C480.483551,344.927307 466.654724,342.310089 452.348450,343.046417 
	C435.297729,343.923950 419.397034,348.427521 409.093872,363.130402 
	C396.165344,381.579681 398.717865,399.628784 412.658783,415.755432 
	C420.100708,424.364166 429.009277,432.267181 438.630890,438.293243 
	C451.924561,446.619202 466.521332,452.862305 480.548279,460.020538 
	C486.632965,463.125671 492.891266,465.953705 498.718292,469.488586 
	C514.950989,479.335876 531.672607,488.484131 544.585205,502.995483 
	C556.754822,516.671753 565.130188,531.839783 567.122437,550.407776 
	C569.187744,569.656616 568.456482,588.572144 561.762024,606.833923 
	C555.491760,623.938904 544.266479,637.552063 528.941223,647.176086 
	C516.611938,654.918701 502.954163,660.088074 488.714111,663.489868 
	C488.194855,663.613892 487.804657,664.278076 487.677124,664.845215 
	C450.979095,665.000000 413.958221,665.000000 376.468689,665.000000 
z"/>
<path fill="#E54125" opacity="1.000000" stroke="none" 
	d="
M569.151794,481.030640 
	C569.101562,478.867126 569.007568,476.703583 569.007385,474.540070 
	C569.000061,377.391815 569.000977,280.243561 569.000977,183.095291 
	C569.000977,181.130966 569.001038,179.166641 569.001038,177.202316 
	C568.684082,177.208023 568.367126,177.213715 568.050171,177.219421 
	C568.050171,278.399231 568.050171,379.579041 568.050171,480.758820 
	C567.739746,480.758881 567.429260,480.758911 567.118835,480.758942 
	C567.118835,379.402588 567.118835,278.046234 567.118835,176.464096 
	C565.957092,176.271439 565.181946,176.027756 564.407959,176.031570 
	C549.608276,176.104416 534.794189,175.847382 520.014954,176.446671 
	C512.068237,176.768890 504.035736,177.912460 496.898224,182.192566 
	C487.289215,187.954727 482.765594,197.150360 480.118347,207.411545 
	C478.705475,212.888214 478.219574,218.604034 477.314636,224.215927 
	C470.399384,224.583206 463.586304,224.945068 456.372803,225.328201 
	C456.372803,198.406815 456.372803,172.024628 456.372803,144.996277 
	C544.904297,144.996277 633.483521,144.996277 722.531372,144.998138 
	C723.000000,155.020889 723.000000,165.041794 723.000000,175.531342 
	C692.538574,176.000000 662.077209,176.000000 631.159363,176.000000 
	C631.159363,278.425720 631.159363,380.479431 631.159363,482.533142 
	C630.840942,482.533600 630.522522,482.534058 630.204102,482.534515 
	C630.204102,380.831268 630.204102,279.127991 630.204102,177.424713 
	C629.789185,177.424469 629.374268,177.424240 628.959351,177.423996 
	C628.959351,278.645691 628.959351,379.867401 628.669617,481.537964 
	C628.379883,481.986847 627.933044,481.946167 627.703979,481.586548 
	C608.033875,481.161499 588.592834,481.096069 569.151794,481.030640 
M458.224365,220.196686 
	C458.481750,218.570908 458.958954,216.945694 458.963104,215.319260 
	C459.014160,195.329086 459.019928,175.338654 458.954956,155.348557 
	C458.949158,153.563812 458.368256,151.780945 457.340820,150.476807 
	C457.240234,151.129044 457.052399,151.781174 457.051758,152.433517 
	C457.030518,174.164413 457.015594,195.895325 457.054993,217.626160 
	C457.056976,218.719635 457.551147,219.812225 458.224365,220.196686 
M637.713196,174.048065 
	C635.590088,174.048065 633.466919,174.048065 631.343811,174.048065 
	C631.346619,174.249481 631.349426,174.450897 631.352234,174.652313 
	C660.739319,174.652313 690.126404,174.652313 719.513428,174.652313 
	C719.513306,174.450974 719.513184,174.249619 719.513000,174.048279 
	C692.559326,174.048279 665.605591,174.048279 637.713196,174.048065 
z"/>
<path fill="#E54125" opacity="1.000000" stroke="none" 
	d="
M358.531342,1.000000 
	C359.000000,104.440002 359.000000,207.880005 359.000000,311.662567 
	C338.969788,311.662567 319.263550,311.662567 299.096619,311.662567 
	C299.096619,226.454803 299.096619,141.399719 299.096619,56.344631 
	C298.773499,56.344215 298.450348,56.343803 298.127228,56.343391 
	C298.127228,141.097046 298.127228,225.850708 298.127228,310.604370 
	C297.752960,310.613892 297.378693,310.623413 297.004425,310.632935 
	C297.004425,308.790070 297.004456,306.947174 297.004425,305.104309 
	C297.003601,223.965439 297.065796,142.826447 296.921875,61.687820 
	C296.903900,51.567024 294.918182,41.660744 289.346405,32.883633 
	C283.435699,23.572607 274.146851,19.357283 264.026825,16.565250 
	C256.030121,14.359027 256.006958,14.442860 256.004669,6.425768 
	C256.004242,4.926228 256.004059,3.426687 256.001892,1.463573 
	C290.020905,1.000000 324.041779,1.000000 358.531342,1.000000 
z"/>
<path fill="#E34024" opacity="1.000000" stroke="none" 
	d="
M360.750000,1.000000 
	C361.000000,104.220192 361.000000,207.440384 361.000000,310.660583 
	C360.666656,310.660858 360.333344,310.661133 360.000000,310.661407 
	C360.000000,207.753372 360.000000,104.845345 360.000000,1.468657 
	C360.000000,1.000000 360.500000,1.000000 360.750000,1.000000 
z"/>
<path fill="#DA401C" opacity="1.000000" stroke="none" 
	d="
M284.888611,481.051086 
	C285.698456,481.047546 286.508270,481.044006 287.722473,481.054626 
	C287.199890,482.046448 286.275970,483.873932 285.345459,483.877289 
	C263.366455,483.957275 241.386765,483.840790 219.147888,483.408569 
	C219.741882,482.748810 220.595169,482.440704 222.239746,482.059296 
	C241.969254,481.988220 260.907593,482.014221 279.845612,481.951813 
	C281.527588,481.946259 283.207642,481.364929 284.888611,481.051086 
z"/>
<path fill="#DB401D" opacity="1.000000" stroke="none" 
	d="
M627.933044,481.946167 
	C627.933044,481.946167 628.379883,481.986847 628.603577,482.003876 
	C628.175354,482.679169 627.526245,483.909363 626.871216,483.912506 
	C608.063477,484.001984 589.255188,483.976166 570.447144,483.907684 
	C569.997620,483.906036 569.550537,483.204285 569.587219,482.405487 
	C589.359070,481.969971 608.646057,481.958069 627.933044,481.946167 
z"/>
<path fill="#DC401D" opacity="1.000000" stroke="none" 
	d="
M97.971329,481.987549 
	C97.979660,482.398651 97.987999,482.809784 98.001389,483.529236 
	C79.608063,483.895660 61.209686,483.967896 42.811279,483.975861 
	C41.729527,483.976318 38.954929,484.770935 42.053795,481.926697 
	C61.268665,481.950409 79.619995,481.968964 97.971329,481.987549 
z"/>
<path fill="#FF22FF" opacity="1.000000" stroke="none" 
	d="
M627.703979,481.586548 
	C608.646057,481.958069 589.359070,481.969971 569.613281,481.973358 
	C569.154480,481.964813 569.026733,481.498108 569.089233,481.264374 
	C588.592834,481.096069 608.033875,481.161499 627.703979,481.586548 
z"/>
<path fill="#FF20FF" opacity="1.000000" stroke="none" 
	d="
M97.753647,481.615295 
	C79.619995,481.968964 61.268665,481.950409 42.456974,481.836548 
	C41.996613,481.741302 42.011383,481.497894 42.013763,481.375977 
	C60.522755,481.250397 79.029366,481.246735 97.753647,481.615295 
z"/>
<path fill="#E34024" opacity="1.000000" stroke="none" 
	d="
M339.000519,627.001160 
	C339.000519,620.721741 339.000519,614.942017 339.000519,609.162354 
	C339.249664,609.165039 339.498840,609.167725 339.747986,609.170410 
	C339.747986,624.061157 339.747986,638.951904 339.747986,653.842651 
	C339.498840,653.845642 339.249664,653.848633 339.000519,653.851624 
	C339.000519,645.067993 339.000519,636.284424 339.000519,627.001160 
z"/>
<path fill="#FF20FF" opacity="1.000000" stroke="none" 
	d="
M284.426941,481.031616 
	C283.207642,481.364929 281.527588,481.946259 279.845612,481.951813 
	C260.907593,482.014221 241.969254,481.988220 222.569672,481.974792 
	C223.621231,481.642883 225.133255,481.047882 226.647125,481.043152 
	C245.753021,480.983307 264.859192,481.008575 284.426941,481.031616 
z"/>
<path fill="#FF4051" opacity="1.000000" stroke="none" 
	d="
M638.182556,174.048172 
	C665.605591,174.048279 692.559326,174.048279 719.513000,174.048279 
	C719.513184,174.249619 719.513306,174.450974 719.513428,174.652313 
	C690.126404,174.652313 660.739319,174.652313 631.352234,174.652313 
	C631.349426,174.450897 631.346619,174.249481 631.343811,174.048065 
	C633.466919,174.048065 635.590088,174.048065 638.182556,174.048172 
z"/>
<path fill="#D54118" opacity="1.000000" stroke="none" 
	d="
M458.054504,149.997208 
	C458.368256,151.780945 458.949158,153.563812 458.954956,155.348557 
	C459.019928,175.338654 459.014160,195.329086 458.963104,215.319260 
	C458.958954,216.945694 458.481750,218.570908 458.078674,220.091995 
	C457.973511,196.657272 458.014008,173.327240 458.054504,149.997208 
z"/>
<path fill="#FF40C1" opacity="1.000000" stroke="none" 
	d="
M457.697662,150.237000 
	C458.014008,173.327240 457.973511,196.657272 457.874573,220.446259 
	C457.551147,219.812225 457.056976,218.719635 457.054993,217.626160 
	C457.015594,195.895325 457.030518,174.164413 457.051758,152.433517 
	C457.052399,151.781174 457.240234,151.129044 457.697662,150.237000 
z"/>
</svg>