<svg id="Logos" xmlns="http://www.w3.org/2000/svg" viewBox="0 0 1324 600"><defs><style>.cls-1{fill:#e31837;}</style></defs><title>Padded</title><g id="UNLV_Scarlet" data-name="UNLV Scarlet"><path class="cls-1" d="M1058.62,150v6.63c62,9.73,55.49,24.31,20.4,114.9L1030.87,396.6,965.59,226c-10.61-27.85-29.39-63.2,28.14-69.39V150H641.06v6.51c46.09,8.67,56.69,20.8,57.1,62l2,158.24L498.71,150H353.83v6.51c57.1,5.63,61.18,30.78,61.18,85.83v45.53c0,52.89,8.57,142.2-79.53,142.2-111.76,0-98.7-111.86-98.7-120.1V221.1c0-47.69.81-56.36,54.24-64.59V150H150.31v6.51c48.94,6.93,49.35,19.94,50.58,64.59v97.11c0,34.68-13.06,131.79,113.38,131.79,90.54,0,113-56.79,114.2-112.71l2.45-95c1.62-57.13-7.06-85.81,29.79-85.81s29,29.05,29,72.37v65c0,98.41,2,138.3-53,144.37v6.5H558.67v-6.5C499.53,425.73,502,403.61,502,296.1V216.33C570.9,295.23,643.51,363.09,708.77,445l5.3-1.31c-2-94.51,1.63-190.64,1.63-238.67,0-29.72,4.88-48.48,30.76-48.48,28.18,0,26.16,20,27.38,64.52V373.71c-1.23,44.64-1.63,57.65-50.58,64.59v6.5H924.38l23.24-80.64-5.3-2.6c-31.4,55.5-41.6,75.87-103.59,71.1l-22.88-3.9c-6.12-20.81-6.12-43.79-6.12-65.46V221.1c0-44.65,6.83-64.72,47.23-64.72s53.12,33,65.38,65.22L1014.55,445h8.05l75.6-185.88c25.3-64.07,37.13-99,75.49-102.52V150Z"/></g></svg>