<svg id="Logos" xmlns="http://www.w3.org/2000/svg" viewBox="0 0 1074 600"><defs><style>.cls-1{fill:none;stroke:#6a737b;stroke-miterlimit:10;stroke-width:8.77px;}.cls-2{fill:#6a737b;}.cls-3{fill:#e31837;}</style></defs><title>Padded</title><g id="AMSL_Official" data-name="AMSL Official"><rect class="cls-1" x="78.95" y="152.19" width="916.1" height="292.54"/><path class="cls-2" d="M848.14,173.79v191H977.28v61.53H757V173.79Z"/><path class="cls-2" d="M309.16,173.8l72,165.61L445.19,173.8H568.58V426.43h-89.7V264.69L419,426.43H349l-59.21-161Z"/><path class="cls-2" d="M111.31,77.94h9l30.82,60h-9.79l-7.32-14.77h-37L89.77,138H80.23ZM117.7,91c-.43-1-.94-2-1.36-3.06a22.14,22.14,0,0,1-.69-2.29c-.25.76-.51,1.61-.85,2.46-.42,1.1-.93,2.12-1.44,3.23l-12.69,24.88h29.72Z"/><path class="cls-2" d="M218.52,121.5c-2.3,4.08-4.69,8.15-10.65,11.89-7.4,4.67-16.94,6-24.18,6-24.44,0-36.53-14-36.53-31.84,0-14.18,7.07-20.72,11.16-23.78,2.55-2,9.7-7.56,25.12-7.56,4.34,0,14.81.6,22.9,5.61a32.23,32.23,0,0,1,11,11.72l-9.2,2a18.86,18.86,0,0,0-6.56-7.38c-3.66-2.38-10.13-4.5-17.79-4.5-14.31,0-27.59,6.7-27.59,23.6a25,25,0,0,0,6.21,17.07c4.09,4.16,11.07,7.64,21.89,7.64,9.28.09,15.49-2.29,19.16-5.18a20.19,20.19,0,0,0,6-7.22Z"/><path class="cls-2" d="M215.73,78h57.64v7.13H248.76V138h-8.51V85.16H215.73Z"/><path class="cls-2" d="M278.82,78h8.77V138h-8.77Z"/><path class="cls-2" d="M348.14,78h9.36L329.15,138h-8.6L291.68,78h9.45l20.95,44.32a37.9,37.9,0,0,1,2.89,7.47,21.46,21.46,0,0,1,2.22-6.54Z"/><path class="cls-2" d="M361.59,78h55.52v7.38h-47v17.92h45.73v7H370.1v20.21h49.14V138H361.59Z"/><path class="cls-2" d="M454.75,78H466.5l18.73,39.06c3,6.45,3.49,7.72,5.79,13.41a127,127,0,0,1,5.45-13.16l19-39.31H527V138h-8V103.5c0-11.46.18-13.42.77-18.34a90.29,90.29,0,0,1-4.51,10.53L494.77,138h-7.84L468.11,99.08a121.27,121.27,0,0,1-6-13.67c.51,4.59.51,5.78.68,15.2V138h-8Z"/><path class="cls-2" d="M560.76,77.94h9l30.83,60h-9.79l-7.33-14.77h-37L539.22,138h-9.54ZM567.15,91c-.43-1-.94-2-1.37-3.06-.25-.76-.51-1.53-.68-2.29-.26.76-.51,1.61-.85,2.46-.43,1.1-.94,2.12-1.45,3.23l-12.69,24.88h29.72Z"/><path class="cls-2" d="M588.2,78h57.64v7.13H621.23V138h-8.51V85.16H588.2Z"/><path class="cls-2" d="M651.46,78H707v7.38H660v17.92H705.7v7H660v20.21h49.13V138H651.46Z"/><path class="cls-2" d="M719.41,78h40.88c5.28.08,11.66.17,16.86,4.84,2,1.7,5.36,5.6,5.36,12.82,0,14.35-12.18,16.3-16.18,17L788.47,138H777.32L757,114h-29V138h-8.52Zm8.43,7.21V107h29.72c4.68,0,10.64-.08,14.05-4.58a10.17,10.17,0,0,0,2-6.37,11.6,11.6,0,0,0-1.78-6.37c-2.73-4.33-7.07-4.33-11-4.42Z"/><path class="cls-2" d="M796.05,78h8.77V138h-8.77Z"/><path class="cls-2" d="M840.07,77.94h9l30.82,60h-9.79l-7.32-14.77h-37L818.53,138H809ZM846.46,91c-.43-1-.94-2-1.36-3.06a22.14,22.14,0,0,1-.69-2.29c-.25.76-.51,1.61-.85,2.46-.42,1.1-.93,2.12-1.44,3.23l-12.69,24.88h29.71Z"/><path class="cls-2" d="M884.09,78h8.52v52.64h39.85V138H884.09Z"/><path class="cls-2" d="M938.25,122.61a17.45,17.45,0,0,0,4.17,3.65c6.56,4.5,14.56,5.86,22.48,5.86,13.2,0,20.44-4.85,20.44-12.15,0-8.32-9.45-9.08-21.37-10.1-15.08-1.27-20.27-1.7-24.87-5.86a13,13,0,0,1-4.26-10c0-17.07,22.65-17.49,28.19-17.49,8.43,0,16.94,1.36,23.93,6a21.35,21.35,0,0,1,6,6l-7.75,3.14a23.48,23.48,0,0,0-3.49-3.14c-5.36-3.83-12-5-18.56-5-4.85,0-10.9.68-14.48,2.46-4.17,2-5.36,5.09-5.36,7.56a6.69,6.69,0,0,0,1.79,4.58c2,2.38,5.19,2.89,10.81,3.48,5.45.6,10.81.94,16.26,1.53a60.77,60.77,0,0,1,7.75,1.19c6.48,1.53,13.8,5.69,13.8,15.54a17.1,17.1,0,0,1-3.07,10c-4.68,6.62-14,9.51-26.39,9.51a68.91,68.91,0,0,1-15.5-1.79c-12.35-3-16.69-9.33-18.39-11.8Z"/><path class="cls-3" d="M205.8,173.8H309.15L419,426.43H320.27l-13.63-41.15H209.75l-13.63,41.15H96.72Zm52,70.14-29.07,85.52h58.85Z"/><path class="cls-3" d="M623.08,238.9a14,14,0,0,0,2.88,8.94c6.1,7.87,31.57,13.6,45.55,16.45,17.23,3.94,34.81,7.16,52,11.1,11.13,2.15,21.89,4.64,32.65,8.94,33.73,12.52,44.48,37.56,44.48,60.46a78.33,78.33,0,0,1-13.27,43.28c-21.16,31.84-63.86,45.79-132,45.79-25.46,0-76-2.14-105.83-28.61-21.88-19.33-25.11-42.58-26.54-54l89.33-2.51c3.22,16.46,20.08,29,56,29,9.32,0,22.6-1.07,31.57-6.08,6.1-3.58,12.56-10.73,12.56-19.32,0-11.81-9.69-16.81-16.87-19.32-11.12-3.57-68.15-13.59-80.71-16.46a265.44,265.44,0,0,1-29.06-7.87c-9.68-3.57-50.22-17.88-50.22-64A71,71,0,0,1,556,195.25c28.35-29.33,79.29-32.2,107.26-32.2,30.86,0,61.35,4.3,77.14,9.66,47.35,15,53.45,50.45,56,64l-89,5c-2.15-8.23-6.46-23.26-44.48-23.26C651.07,218.5,623.08,220.3,623.08,238.9Z"/><path class="cls-3" d="M143.63,521.89a13.51,13.51,0,0,1-4.17.76c-3.91,0-6.13-1.61-11.49-5.43a39.48,39.48,0,0,1-22.06,6.54c-4.51,0-11.49-.68-16.77-5.18a16.07,16.07,0,0,1-5.62-12.06c0-10.45,8-13.33,16.18-16.39-2.47-2.38-6-5.69-6-11.72,0-8.06,6.47-13.58,16.26-13.58,10.47,0,15.5,6.71,15.5,13.24a12.82,12.82,0,0,1-2.56,7.82c-3.06,4.07-7.41,5.6-10.3,6.53,4.09,4.08,7.92,7.56,11.24,10.62l4.26,3.73a37.65,37.65,0,0,0,3.57-6.79,23.28,23.28,0,0,0,1.2-6.28l7.32-.26c-.94,8.24-2.39,11.72-6.73,17.75,2,1.61,4.77,4,8.26,4a14.6,14.6,0,0,0,1.87-.17ZM92.12,505.84c0,6.11,5.7,11,15,11a27.44,27.44,0,0,0,15.08-4.42c-4.6-4-8.52-7.72-10.82-10-1-1-5.79-5.86-6.9-7C99.87,496.75,92.12,499.05,92.12,505.84Zm25.2-27.6c0-4.92-3.74-7.38-7.49-7.38-4.6,0-7.75,3.14-7.75,7,0,4.58,4.17,8.15,6,9.68C111.45,486.48,117.32,484.7,117.32,478.24Z"/><path class="cls-3" d="M202.05,506.86a17.45,17.45,0,0,0,4.17,3.65c6.56,4.5,14.56,5.86,22.48,5.86,13.2,0,20.44-4.84,20.44-12.14,0-8.33-9.45-9.09-21.38-10.11-15.07-1.27-20.26-1.7-24.86-5.86a13,13,0,0,1-4.26-10c0-17.06,22.65-17.49,28.19-17.49,8.43,0,16.94,1.36,23.93,6a21.35,21.35,0,0,1,6,6L249.05,476a24,24,0,0,0-3.49-3.14c-5.36-3.82-12-5-18.56-5-4.85,0-10.9.68-14.48,2.46-4.17,2-5.36,5.1-5.36,7.56A6.67,6.67,0,0,0,209,482.4c2,2.38,5.19,2.89,10.81,3.49,5.45.59,10.82.93,16.26,1.52a62.6,62.6,0,0,1,7.75,1.19c6.47,1.53,13.8,5.69,13.8,15.54a17.1,17.1,0,0,1-3.07,10c-4.68,6.62-14,9.51-26.39,9.51a69.43,69.43,0,0,1-15.5-1.78c-12.35-3.06-16.69-9.34-18.39-11.8Z"/><path class="cls-3" d="M278.09,462.28h11.75l18.73,39.06c3,6.45,3.49,7.73,5.79,13.42a130.32,130.32,0,0,1,5.45-13.17l19-39.31h11.58v60h-8V487.75c0-11.46.17-13.41.76-18.34a90.29,90.29,0,0,1-4.51,10.53l-20.52,42.29h-7.83l-18.82-38.89a121.61,121.61,0,0,1-6-13.67c.51,4.58.51,5.77.68,15.2v37.36h-8Z"/><path class="cls-3" d="M394.58,462.2h9l30.83,60h-9.8l-7.32-14.78H380.36L373,522.23H363.5ZM401,475.27c-.42-1-.93-2-1.36-3a22.23,22.23,0,0,1-.68-2.3c-.26.77-.51,1.62-.85,2.46-.43,1.11-.94,2.13-1.45,3.23l-12.69,24.88h29.72Z"/><path class="cls-3" d="M447.37,462.28h40.87c5.28.09,11.67.17,16.86,4.84,2,1.7,5.37,5.61,5.37,12.82,0,14.35-12.18,16.31-16.18,17l22.14,25.31H505.27l-20.35-24h-29v24h-8.51Zm8.43,7.22v21.74h29.72c4.68,0,10.64-.09,14.05-4.59a10.15,10.15,0,0,0,2-6.37,11.63,11.63,0,0,0-1.79-6.37c-2.72-4.33-7.06-4.33-11-4.41Z"/><path class="cls-3" d="M523.34,462.28H581v7.13H556.38v52.82h-8.51V469.41H523.34Z"/><path class="cls-3" d="M636.42,462.28h8.52v52.64h39.85v7.31H636.42Z"/><path class="cls-3" d="M700.46,462.28h8.77v60h-8.77Z"/><path class="cls-3" d="M780.24,462.28h9.37l-28.36,60h-8.6l-28.86-60h9.45l21,44.32a38,38,0,0,1,2.89,7.48,21,21,0,0,1,2.22-6.54Z"/><path class="cls-3" d="M804,462.28h8.77v60H804Z"/><path class="cls-3" d="M847,462.28l40.53,42.88a95.25,95.25,0,0,1,6.39,7.3,80.14,80.14,0,0,1-.51-8.83V462.28h8.17v60h-8.34l-42.58-44.92c-2.21-2.46-2.89-3.31-4.68-5.52a95.3,95.3,0,0,1,.43,10.36v40.08h-8.18v-60Z"/><path class="cls-3" d="M983.07,514.08c-1.11,1-2,1.95-3.32,3-4.34,3.31-12.69,6.62-22.9,6.62-20.78,0-34.4-14.35-34.4-31.5A31.28,31.28,0,0,1,927.64,475c5.62-8.15,16.69-14.18,30.65-14.18s22.65,5.69,26.06,8.57a24.69,24.69,0,0,1,5.87,7.31l-8.43,2.54a19.84,19.84,0,0,0-3.83-4.5c-5.11-4.41-12.09-6.54-19-6.54-14.81,0-27.41,8.33-27.41,23.44a26.11,26.11,0,0,0,4.08,13.93c6.56,10.1,19.16,10.95,23.08,10.95,5.7,0,14.13-1.78,19.84-7.9,3.75-4.07,4.26-7.39,4.77-10.87H956.85v-7.13h33.63v31.67h-7.41Z"/><path class="cls-2" d="M205.8,173.8H283L209.75,385.28l-13.63,41.15H96.72Z"/></g></svg>