<svg xmlns="http://www.w3.org/2000/svg" viewBox="0 0 2433.47 384.89"><defs><style>.cls-1{fill:#e31837;}.cls-2{fill:#231f20;}.cls-3{fill:none;stroke:#231f20;stroke-width:5px;}</style></defs><title>UNLV Scarlet Horizontal</title><g id="Layer_2" data-name="Layer 2"><g id="Logos"><g id="UNLV_Scarlet_Horizontal" data-name="UNLV Scarlet Horizontal"><path class="cls-1" d="M908.31,47.23v6.63c62,9.72,55.49,24.3,20.41,114.89L880.56,293.81,815.28,123.24C804.67,95.39,785.89,60,843.43,53.86V47.23l-352.68,0v6.51c46.09,8.67,56.69,20.81,57.1,62l2,158.24L348.41,47.21H203.52v6.51c57.1,5.64,61.18,30.78,61.18,85.84v45.52c0,52.89,8.57,142.2-79.53,142.2-111.76,0-98.7-111.86-98.7-120.09V118.31c0-47.68.81-56.35,54.24-64.59V47.21H0v6.51c48.94,6.93,49.35,19.94,50.58,64.59v97.11c0,34.69-13.06,131.79,113.38,131.79,90.54,0,113-56.78,114.2-112.71l2.45-94.94c1.62-57.13-7.06-85.82,29.79-85.82s29,29.06,29,72.38v65c0,98.41,2,138.31-53,144.37V342h122v-6.51c-59.14-12.56-56.69-34.69-56.69-142.19V113.55c68.92,78.89,141.53,146.76,206.79,228.7l5.3-1.3c-2-94.52,1.63-190.65,1.63-238.68,0-29.72,4.88-48.48,30.76-48.48,28.18,0,26.16,20,27.38,64.52V270.92c-1.23,44.64-1.63,57.65-50.58,64.59V342H774.07l23.24-80.65-5.3-2.59c-31.4,55.5-41.6,75.87-103.59,71.09L665.54,326c-6.12-20.82-6.12-43.8-6.12-65.47V118.31c0-44.65,6.83-64.72,47.23-64.72s53.12,33,65.38,65.22l92.21,223.44h8L947.9,156.37c25.29-64.07,37.13-99,75.48-102.51V47.23Z"/><path class="cls-2" d="M1243.85,148.61h-2.62c-3.33-19.78-14.88-34-35.88-34-32,0-50,26.25-50,56.35,0,34.48,26.42,58.45,51.8,58.45,22.93,0,32-16.8,39.9-35.7l2.45,1.05a165.93,165.93,0,0,1-9.62,31.33c-11.2,5.42-23.28,7.52-35.71,7.52-36.57,0-69.13-21-69.13-60.55,0-31.15,24.33-62.65,70.53-62.65,13.31,0,26.78,2.62,38.33,9.45Z"/><path class="cls-2" d="M1390.17,172.06c0,37.63-27.3,61.6-64.05,61.6-36.93,0-64.06-24-64.06-61.77,0-37.28,27.31-61.44,63.88-61.44,44.81,0,64.23,30.46,64.23,61.61m-107.81-4.37c0,27.12,14.36,61.77,45.86,61.77,28.87,0,41.65-29.4,41.65-54.42-.52-31-18.55-60.38-45.33-60.38-30.1,0-42.18,29.4-42.18,53"/><path class="cls-2" d="M1396.46,228.94c21-2.8,21.18-8.05,21.7-26.08v-61.6c-.52-18-.69-23.28-21.7-26.08v-2.62h58.81v2.62c-21,2.8-21.71,8-21.71,26.08v57.4c0,8.75,0,18,2.63,26.43l21.35,1.58c26.6,1.92,31-6.31,44.45-28.71l2.28,1-10,32.55h-97.83Z"/><path class="cls-2" d="M1508.8,228.94c21-2.8,21.17-8.05,21.7-26.08v-61.6c-.53-18-.7-23.28-21.7-26.08v-2.62h58.8v2.62c-21,2.8-21.7,8-21.7,26.08v57.4c0,8.75,0,18,2.63,26.43l21.35,1.58c26.6,1.92,31-6.31,44.45-28.71l2.28,1-10,32.55H1508.8Z"/><path class="cls-2" d="M1621.13,228.94c21-2.8,21.18-8.05,21.7-26.08v-61.6c-.52-18-.69-23.28-21.7-26.08v-2.62h94l-2.1,26.95h-2.62c-1.23-22.58-17.5-22.75-35.18-22.75h-17v49.88h18.21c13.12,0,23.1-1,25-16.11h2.63v39h-2.63c-2.27-15.4-11.9-15.57-25-15.57h-18.21v28.7c0,10.32-2.44,24.68,26.26,24.68,22,0,32.9-8.41,37.27-30.46h2.63a110.45,110.45,0,0,1-6,34.65h-97.31Z"/><path class="cls-2" d="M1856.53,218.09v2.62c-18.72,7.88-33.07,12.95-52.85,12.95-36,0-66.68-21.87-66.68-60.2,0-38.85,34-63,70.53-63a130.59,130.59,0,0,1,41,6.82l-.7,30.45h-2.27c-4.38-20.3-18.38-33.07-39.55-33.07-30.28,0-48.66,23.1-48.66,52.33,0,34.65,24.68,60.73,59.51,60.73,15.92,0,15.75-4.21,15.75-15.58v-10.5c0-19.43-5.08-21.53-23.63-23.8v-2.63h51.8v2.63c-12.25,2.45-12.77,7.34-12.77,18.2v22.05Z"/><path class="cls-2" d="M1866.57,228.94c21-2.8,21.18-8.05,21.7-26.08v-61.6c-.52-18-.7-23.28-21.7-26.08v-2.62h94l-2.1,26.95h-2.62c-1.23-22.58-17.51-22.75-35.18-22.75h-17v49.88h18.2c13.13,0,23.11-1,25-16.11h2.62v39h-2.62c-2.27-15.4-11.9-15.57-25-15.57h-18.2v28.7c0,10.32-2.45,24.68,26.26,24.68,22,0,32.9-8.41,37.27-30.46h2.63a110.45,110.45,0,0,1-5.95,34.65h-97.31Z"/><path class="cls-2" d="M2163.2,172.06c0,37.63-27.3,61.6-64,61.6-36.93,0-64.06-24-64.06-61.77,0-37.28,27.31-61.44,63.89-61.44,44.8,0,64.22,30.46,64.22,61.61m-107.8-4.37c0,27.12,14.35,61.77,45.85,61.77,28.88,0,41.65-29.4,41.65-54.42-.52-31-18.55-60.38-45.32-60.38-30.11,0-42.18,29.4-42.18,53"/><path class="cls-2" d="M2252.22,151.06v42.7h-2.62c-1.4-17.67-10.5-17.32-25.2-17.32h-19.08v26.42c0,18.73.88,22.4,25.2,26.08v2.62h-62.3v-2.62c21-2.8,21.17-8.05,21.7-26.08v-61.6c-.53-18-.7-23.28-21.7-26.08v-2.62h92.58l-2.8,27.65h-2.62c-1.06-22.58-15.76-23.45-34.13-23.45h-15.93v52.32h19.08c14.7,0,23.8-1.4,25.2-18Z"/><path class="cls-2" d="M1131,378.94c21-2.8,21.18-8.05,21.7-26.08v-61.6c-.52-18-.7-23.28-21.7-26.08v-2.62h94l-2.1,26.95h-2.62c-1.23-22.58-17.5-22.75-35.18-22.75h-17v49.88h18.2c13.13,0,23.11-1.05,25-16.11h2.63v39h-2.63c-2.27-15.4-11.9-15.57-25-15.57h-18.2v28.7c0,10.33-2.45,24.68,26.25,24.68,22.06,0,32.91-8.4,37.28-30.45h2.63a110.45,110.45,0,0,1-6,34.65H1131Z"/><path class="cls-2" d="M1357.51,354.09l-.87-63.88c-.18-16.62-4.73-21.53-24.5-25v-2.62h47.77v2.62c-12.07,1.58-14.35,8.23-15.75,19.61-2.45,19.25-1.57,61.42-.7,99.58l-2.27.52c-28-33.08-59.16-63.7-88.73-95.56v32.21c0,43.4-1,52.33,24.32,57.4v2.63h-52.32v-2.63c23.62-2.45,22.75-18.55,22.75-58.28V294.41c0-17.5-2.8-24.32-25-29.23v-2.62h28.88Z"/><path class="cls-2" d="M1506.09,368.09v2.63c-18.73,7.87-33.08,12.95-52.85,12.95-36.06,0-66.68-21.88-66.68-60.21,0-38.85,34-63,70.53-63a130.68,130.68,0,0,1,41,6.82l-.7,30.46h-2.28c-4.37-20.31-18.37-33.08-39.55-33.08-30.28,0-48.65,23.1-48.65,52.33,0,34.65,24.67,60.73,59.5,60.73,15.93,0,15.75-4.2,15.75-15.58v-10.5c0-19.43-5.07-21.53-23.62-23.8v-2.63h51.8v2.63c-12.25,2.45-12.78,7.35-12.78,18.2v22Z"/><path class="cls-2" d="M1553.32,352.86c.52,18,.7,23.28,21.7,26.08v2.63h-58.8v-2.63c21-2.8,21.17-8.05,21.7-26.08v-61.6c-.53-18-.7-23.28-21.7-26.08v-2.62H1575v2.62c-21,2.8-21.18,8.05-21.7,26.08Z"/><path class="cls-2" d="M1701.16,354.09l-.87-63.88c-.18-16.62-4.73-21.53-24.51-25v-2.62h47.78v2.62c-12.07,1.58-14.35,8.23-15.74,19.61-2.46,19.25-1.58,61.42-.7,99.58l-2.28.52c-28-33.08-59.16-63.7-88.73-95.56v32.21c0,43.4-1,52.33,24.32,57.4v2.63h-52.32v-2.63c23.62-2.45,22.75-18.55,22.75-58.28V294.41c0-17.5-2.8-24.32-25-29.23v-2.62h28.88Z"/><path class="cls-2" d="M1734.65,378.94c21-2.8,21.18-8.05,21.7-26.08v-61.6c-.52-18-.7-23.28-21.7-26.08v-2.62h94l-2.1,26.95h-2.62c-1.23-22.58-17.5-22.75-35.18-22.75h-17v49.88H1790c13.12,0,23.1-1.05,25-16.11h2.63v39H1815c-2.27-15.4-11.9-15.57-25-15.57h-18.21v28.7c0,10.33-2.45,24.68,26.26,24.68,22,0,32.9-8.4,37.27-30.45h2.63a110.45,110.45,0,0,1-6,34.65h-97.31Z"/><path class="cls-2" d="M1848.28,378.94c21-2.8,21.17-8.05,21.7-26.08v-61.6c-.53-18-.7-23.28-21.7-26.08v-2.62h94l-2.1,26.95h-2.62c-1.23-22.58-17.51-22.75-35.18-22.75h-17v49.88h18.2c13.13,0,23.11-1.05,25-16.11h2.62v39h-2.62c-2.27-15.4-11.9-15.57-25-15.57h-18.2v28.7c0,10.33-2.45,24.68,26.26,24.68,22,0,32.9-8.4,37.27-30.45h2.63a110.45,110.45,0,0,1-6,34.65h-97.31Z"/><path class="cls-2" d="M1983.53,298.61c0-26.77-.87-30.8-20.47-32.55v-2.45l42.7-1.4c44.11-1.4,47.61,20.13,47.61,28.53,0,14.7-9.11,23.1-21.71,28.7l.88,1.22c13.47,23.63,30.28,53.73,59.15,59.68l-.52,2.63c-18.55-.88-32.2-.35-42.35-10.85-11.55-12.08-20.66-27.48-24.33-35-7-14.52-13.3-10.32-25.55-12.42v28.17c0,19.26.35,22.75,24.32,26.08v2.63h-61.43v-2.63c21-2.8,21.18-8.05,21.7-26.08Zm15.41,23.1c16.8-.17,36.4-7.87,36.4-27.3,0-20.47-18-28.7-36.4-28.53Z"/><path class="cls-2" d="M2132.85,352.86c.52,18,.7,23.28,21.7,26.08v2.63h-58.8v-2.63c21-2.8,21.17-8.05,21.7-26.08v-61.6c-.53-18-.7-23.28-21.7-26.08v-2.62h58.8v2.62c-21,2.8-21.18,8.05-21.7,26.08Z"/><path class="cls-2" d="M2280.69,354.09l-.87-63.88c-.18-16.62-4.73-21.53-24.51-25v-2.62h47.78v2.62c-12.07,1.58-14.35,8.23-15.75,19.61-2.45,19.25-1.57,61.42-.7,99.58l-2.27.52c-28-33.08-59.16-63.7-88.74-95.56v32.21c0,43.4-1.05,52.33,24.33,57.4v2.63h-52.33v-2.63c23.63-2.45,22.75-18.55,22.75-58.28V294.41c0-17.5-2.8-24.32-25-29.23v-2.62h28.87Z"/><path class="cls-2" d="M2429.27,368.09v2.63c-18.73,7.87-33.08,12.95-52.85,12.95-36.06,0-66.68-21.88-66.68-60.21,0-38.85,34-63,70.53-63a130.68,130.68,0,0,1,40.95,6.82l-.7,30.46h-2.28c-4.37-20.31-18.37-33.08-39.55-33.08-30.27,0-48.65,23.1-48.65,52.33,0,34.65,24.67,60.73,59.5,60.73,15.93,0,15.75-4.2,15.75-15.58v-10.5c0-19.43-5.07-21.53-23.62-23.8v-2.63h51.8v2.63c-12.25,2.45-12.78,7.35-12.78,18.2v22Z"/><line class="cls-3" x1="1074.46" y1="47.21" x2="1074.46" y2="347.21"/><path class="cls-1" d="M1157.78,55.39c0,11,.19,13,13.29,14.9v1.5h-34.49v-1.5c12-1.6,12.09-4.6,12.4-14.9V20.2c-.31-10.3-.41-13.3-12.4-14.9V3.8h34.49V5.3c-13.1,1.9-13.29,3.9-13.29,14.9V34.7H1198V20.2c0-11-.2-13-13.3-14.9V3.8h34.5V5.3c-12,1.6-12.1,4.6-12.4,14.9V55.39c.3,10.3.4,13.3,12.4,14.9v1.5h-34.5v-1.5c13.1-1.9,13.3-3.9,13.3-14.9V38.9h-40.19Z"/><path class="cls-1" d="M1296.85,37.8c0,21.49-15.6,35.19-36.6,35.19s-36.59-13.7-36.59-35.29c0-21.3,15.6-35.1,36.49-35.1,25.6,0,36.7,17.4,36.7,35.2m-61.59-2.5c0,15.49,8.2,35.29,26.19,35.29,16.5,0,23.8-16.8,23.8-31.09-.3-17.7-10.6-34.5-25.9-34.5-17.19,0-24.09,16.8-24.09,30.3"/><path class="cls-1" d="M1324.47,74.09h-1l-16.3-55.89c-2.5-7.3-2.8-10.6-11.1-12.9V3.8h28.3V5.3c-12.2,1.8-9.7,6.9-7.3,15.1l10.5,35.49,15.69-41.79c-2-6.1-5.3-7.7-11.29-8.8V3.8h29.19V5.3c-10.9,1.5-9.6,6.2-7.8,12l12.7,39.59,7.9-22.5c1.7-5,6.2-17.49,6.2-22.29s-4.5-5.6-10-6.8V3.8h26.1V5.3c-6,.4-9,3.8-11.1,9.1l-7,19.1-14.7,40.59h-1.1l-17.8-55.59Z"/><path class="cls-1" d="M1404.45,43.3c-1.69,5-6.09,15.39-6.09,20.19,0,6.1,6.89,6.1,11.39,6.8v1.5h-27.39v-1.5c8.9-2.4,9.8-4.4,12.9-12.2l11.29-29.49,6-16.3c.9-2.6,2.2-5,1.1-6.9A18.8,18.8,0,0,0,1421,0l22,58.59c2.7,7.3,4.4,10.2,12.4,11.7v1.5H1426v-1.5c3.5-.8,7.7-1.9,7.7-6.4,0-4.2-3.8-13.6-6.4-20.59Zm11.1-30.6-9.4,26H1426Z"/><path class="cls-1" d="M1472.74,24.4c0-15.3-.5-17.6-11.7-18.6V4.4l24.39-.8c25.2-.8,27.2,11.5,27.2,16.3,0,8.39-5.2,13.19-12.4,16.39l.5.7c7.7,13.5,17.3,30.7,33.8,34.1l-.3,1.5c-10.6-.5-18.4-.2-24.2-6.2a88,88,0,0,1-13.9-20c-4-8.3-7.59-5.9-14.59-7.1v16.1c0,11,.2,13,13.89,14.9v1.5h-35.09v-1.5c12-1.6,12.1-4.6,12.4-14.9Zm8.8,13.19c9.59-.1,20.79-4.5,20.79-15.59,0-11.7-10.3-16.4-20.79-16.3Z"/><path class="cls-1" d="M1538,4.4l24.2-.8c44-1.4,48.59,24,48.59,34.4,0,14.29-9.2,34.29-43.59,34l-29.8-.2v-1.5c12-1.6,12.1-4.6,12.4-14.9V20.7c-.3-10.3-.4-13.3-11.8-14.9Zm20.6,52c0,6.7,1.2,13.1,13.6,13.1,11.5,0,27-7.2,27-30,0-24-18.89-34-40.59-33.9Z"/><path class="cls-1" d="M1659.66,24.4c0-15.3-.5-17.6-11.7-18.6V4.4l24.4-.8c25.2-.8,27.19,11.5,27.19,16.3,0,8.39-5.19,13.19-12.39,16.39l.5.7c7.7,13.5,17.3,30.7,33.79,34.1l-.3,1.5c-10.6-.5-18.39-.2-24.19-6.2a88,88,0,0,1-13.9-20c-4-8.3-7.6-5.9-14.6-7.1v16.1c0,11,.2,13,13.9,14.9v1.5h-35.1v-1.5c12-1.6,12.1-4.6,12.4-14.9Zm8.8,13.19c9.6-.1,20.8-4.5,20.8-15.59,0-11.7-10.3-16.4-20.8-16.3Z"/><path class="cls-1" d="M1727.05,67.59a5.46,5.46,0,0,1,5.4-5.5,5.55,5.55,0,0,1,5.5,5.5,5.46,5.46,0,0,1-5.5,5.4,5.38,5.38,0,0,1-5.4-5.4"/><path class="cls-1" d="M1797.55,55.39c0,11,.2,13,13.3,14.9v1.5h-34.5v-1.5c12-1.6,12.1-4.6,12.4-14.9V20.2c-.3-10.3-.4-13.3-12.4-14.9V3.8h34.5V5.3c-13.1,1.9-13.3,3.9-13.3,14.9V34.7h40.2V20.2c0-11-.21-13-13.3-14.9V3.8h34.49V5.3c-12,1.6-12.1,4.6-12.4,14.9V55.39c.3,10.3.4,13.3,12.4,14.9v1.5h-34.49v-1.5c13.09-1.9,13.3-3.9,13.3-14.9V38.9h-40.2Z"/><path class="cls-1" d="M1945.42,3.8V5.3c-9.09,1-9.7,6.6-10.1,19.8l-.6,21.89c-.3,12.9-5.79,26-28,26-31,0-27.8-22.4-27.8-30.4V20.2c-.3-10.3-.4-13.3-12.4-14.9V3.8H1901V5.3c-13.1,1.9-13.3,3.9-13.3,14.9V40.69c0,1.9-3.2,27.7,24.2,27.7,21.6,0,19.5-20.6,19.5-32.79V25.1c0-12.7-1-18.5-15-19.8V3.8Z"/><path class="cls-1" d="M2017.87,64.09v1.5c-10.7,4.5-18.9,7.4-30.2,7.4-20.6,0-38.1-12.5-38.1-34.4,0-22.19,19.4-36,40.3-36a74.57,74.57,0,0,1,23.4,3.9l-.4,17.4h-1.3C2009.07,12.3,2001.07,5,1989,5c-17.3,0-27.8,13.2-27.8,29.89,0,19.8,14.1,34.7,34,34.7,9.1,0,9-2.4,9-8.9v-6c0-11.1-2.9-12.3-13.5-13.6v-1.5h29.6v1.5c-7,1.4-7.3,4.2-7.3,10.4v12.6Z"/><path class="cls-1" d="M2045.51,55.39c0,11,.2,13,13.3,14.9v1.5h-34.5v-1.5c12-1.6,12.1-4.6,12.4-14.9V20.2c-.3-10.3-.4-13.3-12.4-14.9V3.8h34.5V5.3c-13.1,1.9-13.3,3.9-13.3,14.9V34.7h40.2V20.2c0-11-.2-13-13.3-14.9V3.8h34.5V5.3c-12,1.6-12.1,4.6-12.4,14.9V55.39c.3,10.3.4,13.3,12.4,14.9v1.5h-34.5v-1.5c13.1-1.9,13.3-3.9,13.3-14.9V38.9h-40.2Z"/><path class="cls-1" d="M2114.55,70.29c12-1.6,12.1-4.6,12.4-14.9V20.2c-.3-10.3-.4-13.3-12.4-14.9V3.8h53.69L2167,19.2h-1.5c-.7-12.9-10-13-20.1-13h-9.69V34.7h10.39c7.5,0,13.2-.6,14.3-9.2h1.5V47.79h-1.5c-1.3-8.8-6.8-8.89-14.3-8.89h-10.39V55.29c0,5.9-1.4,14.1,15,14.1,12.6,0,18.8-4.8,21.3-17.4h1.5a63,63,0,0,1-3.4,19.8h-55.59Z"/><path class="cls-1" d="M2222,21.4h-1.6c-1.6-8.1-4.2-15.9-14.1-15.9-6.4,0-11.69,4.4-11.69,11,0,17.29,31.49,16.7,31.49,36.89,0,12.9-12.8,19.6-24.3,19.6a33,33,0,0,1-17.59-5.1l-2.9-17h1.8c2.5,9.6,9.2,19.1,20.2,19.1,7.39,0,13.19-4.4,13.19-12.2,0-17.8-30.59-16.2-30.59-36.19,0-11.7,11.6-19.1,22.29-19.1a30.93,30.93,0,0,1,14.6,3.9Z"/></g></g></g></svg>