<?xml version="1.0" encoding="UTF-8" standalone="no"?>
<!-- Created with Inkscape (http://www.inkscape.org/) -->

<svg
   version="1.1"
   id="svg2"
   width="392.84"
   height="113.29333"
   viewBox="0 0 392.84 113.29333"
   sodipodi:docname="UNLV-Scarlet.eps"
   xmlns:inkscape="http://www.inkscape.org/namespaces/inkscape"
   xmlns:sodipodi="http://sodipodi.sourceforge.net/DTD/sodipodi-0.dtd"
   xmlns="http://www.w3.org/2000/svg"
   xmlns:svg="http://www.w3.org/2000/svg">
  <defs
     id="defs6" />
  <sodipodi:namedview
     id="namedview4"
     pagecolor="#ffffff"
     bordercolor="#000000"
     borderopacity="0.25"
     inkscape:showpageshadow="2"
     inkscape:pageopacity="0.0"
     inkscape:pagecheckerboard="0"
     inkscape:deskcolor="#d1d1d1" />
  <g
     id="g8"
     inkscape:groupmode="layer"
     inkscape:label="ink_ext_XXXXXX"
     transform="matrix(1.3333333,0,0,-1.3333333,0,113.29333)">
    <g
       id="g10"
       transform="scale(0.1)">
      <path
         d="m 2615.06,849.66 v -19.09 c 178.58,-27.984 159.75,-69.968 58.74,-330.777 L 2535.17,139.727 2347.21,630.82 c -30.54,80.157 -84.6,181.946 81.04,199.75 v 19.09 l -1015.37,0.039 v -18.73 c 132.7,-24.957 163.23,-59.903 164.41,-178.473 l 5.85,-455.582 -580.07,652.785 H 585.945 v -18.73 C 750.344,814.742 762.09,742.352 762.09,583.84 V 452.785 c 0,-152.277 24.656,-395.3905 -228.977,-395.3905 -304.457,0 -284.172,232.3285 -284.172,331.7385 v 255.875 c 0,137.289 2.348,162.246 156.176,185.961 v 18.73 H 0 v -18.73 C 140.902,811.008 142.074,773.551 145.609,645.008 V 365.41 C 145.609,265.566 108.031,0 472.043,0 732.73,0 797.32,149.484 800.836,310.5 l 7.051,273.34 c 0,198.699 -12.149,247.062 85.754,247.062 90.429,0 83.593,-53.777 83.593,-208.379 V 435.324 c 0,-283.32 5.875,-398.1756 -152.656,-415.6443 V 0.0390625 H 1175.69 V 19.6797 C 1005.41,55.8594 1012.46,119.551 1012.46,429.063 v 229.66 C 1210.9,431.59 1419.93,235.957 1607.82,0.0390625 h 15.26 c -5.86,272.1089375 4.7,552.8669375 4.7,691.1449375 0,85.57 14.05,139.562 88.57,139.562 81.11,0 75.3,-57.648 78.81,-185.738 V 205.637 C 1791.63,77.1211 1790.46,39.6484 1649.54,19.6797 V 0.0390625 h 579.03 l 66.92,233.0979375 -15.28,7.461 c -90.4,-159.7777 -119.9,-217.5511 -298.23,-204.68 -57.14,4.4453 -65.89,11.2109 -65.89,11.2109 -17.6,59.9221 -17.6,126.0861 -17.6,188.4691 v 409.41 c 0,128.543 19.66,186.336 135.97,186.336 116.3,0 152.95,-94.922 188.22,-187.789 L 2487.92,0.0351563 h 23.19 L 2729.02,535.418 c 72.82,184.465 106.9,284.984 217.33,295.152 v 19.09 h -331.29"
         style="fill:#e51636;fill-opacity:1;fill-rule:nonzero;stroke:none"
         id="path12" />
    </g>
  </g>
</svg>
